<?xml version="1.0" encoding="UTF-8"?>
<svg id="Layer_2" data-name="Layer 2" xmlns="http://www.w3.org/2000/svg" viewBox="0 0 28.16 28.16">
  <defs>
    <style>
      .cls-1 {
        fill: #fff;
      }

      .cls-2 {
        fill: #fd27d4;
      }
    </style>
  </defs>
  <g id="Layer_1-2" data-name="Layer 1">
    <g>
      <circle class="cls-2" cx="14.08" cy="14.08" r="14.08"/>
      <g>
        <path class="cls-1" d="M13.32,7.96c-.3-.27-.82-.27-1.14-.03l-4.69,3.9c-.84.12-1.9-.1-2.72.04-.41.07-.67.41-.71.82-.1,1.14.08,2.42,0,3.57.06.39.36.72.76.76.83.09,1.81-.09,2.65.03,1.64,1.33,3.23,2.73,4.9,4.02.56.24,1.17-.15,1.21-.76v-11.75c0-.21-.12-.46-.27-.6ZM16.74,9.75c-.51-.01-1.04.49-1.02,1,0,.37.45.82.64,1.15.87,1.48.91,3.33.12,4.86-.28.54-.83.97-.47,1.62s1.11.73,1.58.16c1.66-2.01,1.69-5.3.45-7.51-.26-.46-.72-1.26-1.3-1.28Z"/>
        <path class="cls-1" d="M23.12,13.82v1.23c-.14,1.9-.72,3.76-1.75,5.37-.44.7-1.26,2.1-2.2,1.19-.74-.72-.02-1.3.38-1.89,2.24-3.29,2.24-7.49-.1-10.73-.46-.63-1.27-1.25-.35-1.99.82-.66,1.44.28,1.87.88,1.23,1.69,2.03,3.85,2.14,5.95Z"/>
        <path class="cls-1" d="M13.32,7.96c.16.14.27.39.27.6v11.75c-.04.6-.64,1-1.21.76-1.67-1.29-3.27-2.69-4.9-4.02-.84-.12-1.82.07-2.65-.03-.4-.05-.71-.37-.76-.76.07-1.15-.1-2.43,0-3.57.03-.4.29-.75.71-.82.81-.14,1.88.09,2.72-.04l4.69-3.9c.31-.25.84-.24,1.14.03Z"/>
        <path class="cls-1" d="M16.74,9.75c.58.02,1.04.82,1.3,1.28,1.24,2.21,1.21,5.5-.45,7.51-.48.58-1.23.48-1.58-.16s.2-1.08.47-1.62c.78-1.53.74-3.38-.12-4.86-.19-.32-.63-.78-.64-1.15-.01-.51.52-1.01,1.02-1Z"/>
      </g>
    </g>
  </g>
</svg>