<svg xmlns="http://www.w3.org/2000/svg" xmlns:xlink="http://www.w3.org/1999/xlink" version="1.1" width="256" height="256" viewBox="0 0 256 256" xml:space="preserve">

<defs>
</defs>
<g style="stroke: none; stroke-width: 0; stroke-dasharray: none; stroke-linecap: butt; stroke-linejoin: miter; stroke-miterlimit: 10; fill: none; fill-rule: nonzero; opacity: 1;" transform="translate(1.4065934065934016 1.4065934065934016) scale(2.81 2.81)" >
	<path d="M 0 64.824 h 13.124 h 47.704 H 90 V 52.008 V 25.176 C 55.772 33.069 25.661 46.146 0 64.824 z" style="stroke: none; stroke-width: 1; stroke-dasharray: none; stroke-linecap: butt; stroke-linejoin: miter; stroke-miterlimit: 10; fill: rgb(255,48,81); fill-rule: nonzero; opacity: 1;" transform=" matrix(1 0 0 1 0 0) " stroke-linecap="round" />
	<polygon points="90,25.18 76.88,25.18 29.17,25.18 0,25.18 0,37.99 0,64.82 " style="stroke: none; stroke-width: 1; stroke-dasharray: none; stroke-linecap: butt; stroke-linejoin: miter; stroke-miterlimit: 10; fill: rgb(255,71,100); fill-rule: nonzero; opacity: 1;" transform="  matrix(1 0 0 1 0 0) "/>
	<path d="M 40.399 55.433 h -8.364 c -0.552 0 -1 -0.447 -1 -1 V 35.567 c 0 -0.552 0.448 -1 1 -1 s 1 0.448 1 1 v 17.866 h 7.364 c 0.552 0 1 0.447 1 1 S 40.951 55.433 40.399 55.433 z" style="stroke: none; stroke-width: 1; stroke-dasharray: none; stroke-linecap: butt; stroke-linejoin: miter; stroke-miterlimit: 10; fill: rgb(255,255,255); fill-rule: nonzero; opacity: 1;" transform=" matrix(1 0 0 1 0 0) " stroke-linecap="round" />
	<path d="M 47.52 55.433 c -0.553 0 -1 -0.447 -1 -1 V 35.567 c 0 -0.552 0.447 -1 1 -1 s 1 0.448 1 1 v 18.866 C 48.52 54.985 48.072 55.433 47.52 55.433 z" style="stroke: none; stroke-width: 1; stroke-dasharray: none; stroke-linecap: butt; stroke-linejoin: miter; stroke-miterlimit: 10; fill: rgb(255,255,255); fill-rule: nonzero; opacity: 1;" transform=" matrix(1 0 0 1 0 0) " stroke-linecap="round" />
	<path d="M 82.576 55.433 h -8.363 c -0.553 0 -1 -0.447 -1 -1 V 35.567 c 0 -0.552 0.447 -1 1 -1 h 8.363 c 0.553 0 1 0.448 1 1 s -0.447 1 -1 1 h -7.363 v 16.866 h 7.363 c 0.553 0 1 0.447 1 1 S 83.129 55.433 82.576 55.433 z" style="stroke: none; stroke-width: 1; stroke-dasharray: none; stroke-linecap: butt; stroke-linejoin: miter; stroke-miterlimit: 10; fill: rgb(255,255,255); fill-rule: nonzero; opacity: 1;" transform=" matrix(1 0 0 1 0 0) " stroke-linecap="round" />
	<path d="M 79.684 46 h -5.471 c -0.553 0 -1 -0.448 -1 -1 s 0.447 -1 1 -1 h 5.471 c 0.553 0 1 0.448 1 1 S 80.236 46 79.684 46 z" style="stroke: none; stroke-width: 1; stroke-dasharray: none; stroke-linecap: butt; stroke-linejoin: miter; stroke-miterlimit: 10; fill: rgb(255,255,255); fill-rule: nonzero; opacity: 1;" transform=" matrix(1 0 0 1 0 0) " stroke-linecap="round" />
	<path d="M 60.898 55.433 c -0.423 0 -0.8 -0.267 -0.942 -0.665 L 53.24 35.902 c -0.185 -0.521 0.087 -1.092 0.607 -1.277 c 0.518 -0.186 1.091 0.086 1.277 0.606 l 5.773 16.22 l 5.773 -16.22 c 0.186 -0.52 0.76 -0.793 1.277 -0.606 c 0.521 0.185 0.792 0.757 0.607 1.277 l -6.716 18.865 C 61.698 55.166 61.321 55.433 60.898 55.433 z" style="stroke: none; stroke-width: 1; stroke-dasharray: none; stroke-linecap: butt; stroke-linejoin: miter; stroke-miterlimit: 10; fill: rgb(255,255,255); fill-rule: nonzero; opacity: 1;" transform=" matrix(1 0 0 1 0 0) " stroke-linecap="round" />
	<circle cx="14.499" cy="44.998999999999995" r="1.849" style="stroke: none; stroke-width: 1; stroke-dasharray: none; stroke-linecap: butt; stroke-linejoin: miter; stroke-miterlimit: 10; fill: rgb(255,255,255); fill-rule: nonzero; opacity: 1;" transform="  matrix(1 0 0 1 0 0) "/>
	<path d="M 10.707 42.212 c -0.256 0 -0.512 -0.098 -0.707 -0.293 c -0.391 -0.391 -0.391 -1.023 0 -1.414 c 1.201 -1.201 2.797 -1.862 4.495 -1.862 c 1.698 0 3.295 0.662 4.495 1.862 c 0.391 0.391 0.391 1.024 0 1.414 c -0.391 0.391 -1.023 0.391 -1.414 0 c -0.823 -0.823 -1.917 -1.276 -3.081 -1.276 c -1.164 0 -2.258 0.454 -3.081 1.276 C 11.218 42.114 10.962 42.212 10.707 42.212 z" style="stroke: none; stroke-width: 1; stroke-dasharray: none; stroke-linecap: butt; stroke-linejoin: miter; stroke-miterlimit: 10; fill: rgb(255,255,255); fill-rule: nonzero; opacity: 1;" transform=" matrix(1 0 0 1 0 0) " stroke-linecap="round" />
	<path d="M 14.495 51.354 c -1.628 0 -3.256 -0.619 -4.495 -1.858 c -0.391 -0.391 -0.391 -1.023 0 -1.414 s 1.023 -0.391 1.414 0 c 1.699 1.7 4.463 1.698 6.162 0 c 0.391 -0.391 1.023 -0.391 1.414 0 s 0.391 1.023 0 1.414 C 17.75 50.734 16.123 51.354 14.495 51.354 z" style="stroke: none; stroke-width: 1; stroke-dasharray: none; stroke-linecap: butt; stroke-linejoin: miter; stroke-miterlimit: 10; fill: rgb(255,255,255); fill-rule: nonzero; opacity: 1;" transform=" matrix(1 0 0 1 0 0) " stroke-linecap="round" />
	<path d="M 21.566 38.929 c -0.256 0 -0.512 -0.098 -0.707 -0.293 c -3.51 -3.509 -9.22 -3.509 -12.728 0 c -0.391 0.391 -1.023 0.391 -1.414 0 s -0.391 -1.023 0 -1.414 c 4.29 -4.288 11.268 -4.288 15.556 0 c 0.391 0.391 0.391 1.023 0 1.414 C 22.078 38.831 21.822 38.929 21.566 38.929 z" style="stroke: none; stroke-width: 1; stroke-dasharray: none; stroke-linecap: butt; stroke-linejoin: miter; stroke-miterlimit: 10; fill: rgb(255,255,255); fill-rule: nonzero; opacity: 1;" transform=" matrix(1 0 0 1 0 0) " stroke-linecap="round" />
	<path d="M 14.495 55.995 c -2.816 0 -5.633 -1.072 -7.778 -3.217 c -0.391 -0.391 -0.391 -1.023 0 -1.414 s 1.023 -0.391 1.414 0 c 3.509 3.51 9.219 3.51 12.728 0 c 0.391 -0.391 1.023 -0.391 1.414 0 s 0.391 1.023 0 1.414 C 20.128 54.923 17.312 55.995 14.495 55.995 z" style="stroke: none; stroke-width: 1; stroke-dasharray: none; stroke-linecap: butt; stroke-linejoin: miter; stroke-miterlimit: 10; fill: rgb(255,255,255); fill-rule: nonzero; opacity: 1;" transform=" matrix(1 0 0 1 0 0) " stroke-linecap="round" />
</g>
</svg>