<svg xmlns="http://www.w3.org/2000/svg" fill="none" viewBox="0 0 16 16" id="Arrow-Zoom-In-Fill--Streamline-Outlined-Fill-Expansion" height="16" width="16"><desc>Arrow Zoom In Fill Streamline Icon: https://streamlinehq.com</desc><g id="arrow-zoom-in-fill"><path id="Union" fill="#f8f8f8" fill-rule="evenodd" d="M1.952573333333333 1.0098066666666665 5.334899999999999 4.392133333333333l0 -2.4277333333333333 1.3317199999999998 -0.01178 0 4.71404 -4.7140466666666665 0 0.011786666666666668 -1.3317199999999998 2.4277333333333333 0.00000666666666666667 -3.3823266666666663 -3.3823333333333334 0.9428066666666666 -0.9428066666666666Zm12.094826666666666 0L10.665066666666666 4.392133333333333V1.9644l-1.3316666666666666 -0.01178 0 4.71404 4.7139999999999995 0 -0.011733333333333333 -1.3317199999999998 -2.4277333333333333 0.00000666666666666667 3.3822666666666668 -3.3823333333333334 -0.9427999999999999 -0.9428066666666666ZM5.334899999999999 11.607866666666666l-3.3823266666666663 3.3823333333333334 -0.9428066666666666 -0.9427999999999999 3.3823266666666663 -3.3823333333333334 -2.4277333333333333 0L1.952573333333333 9.333333333333332l4.7140466666666665 0 0 4.714066666666667 -1.3317199999999998 -0.0118 0 -2.4277333333333333Zm8.712499999999999 3.3823333333333334 -3.3823333333333334 -3.3823333333333334v2.4277333333333333l-1.3316666666666666 0.0118 0 -4.714066666666667 4.7139999999999995 0 -0.011733333333333333 1.3317333333333332 -2.4277333333333333 0 3.3822666666666668 3.3823333333333334 -0.9427999999999999 0.9427999999999999Z" clip-rule="evenodd" stroke-width="0.6667"></path></g></svg>