<svg xmlns="http://www.w3.org/2000/svg" fill="none" viewBox="0 0 16 16" id="Triangle-Arrow-Zoom-Out-Fill--Streamline-Outlined-Fill-Expansion" height="16" width="16"><desc>Triangle Arrow Zoom Out Fill Streamline Icon: https://streamlinehq.com</desc><g id="triangle-arrow-zoom-out-fill"><path id="Union" fill="#ffffff" fill-rule="evenodd" d="M1.3333333333333333 1.3333333333333333h4.666666666666666L4.138073333333333 3.1952599999999998l2.9999933333333333 3 -0.9428066666666666 0.9428066666666666 -3 -2.9999933333333333L1.3333333333333333 6V1.3333333333333333Zm13.333333333333332 0h-4.666666666666666l1.8619333333333332 1.8619266666666665 -3 3 0.9427999999999999 0.9428066666666666 3 -2.9999933333333333L14.666666666666666 6l0 -4.666666666666666ZM6 14.666666666666666l-4.666666666666666 0v-4.666666666666666l1.8619266666666665 1.8619333333333332 3 -3 0.9428066666666666 0.9427999999999999 -2.9999933333333333 3L6 14.666666666666666Zm8.666666666666666 0 -4.666666666666666 0 1.8619333333333332 -1.8619333333333332 -3 -3 0.9427999999999999 -0.9427999999999999 3 3L14.666666666666666 10l0 4.666666666666666Z" clip-rule="evenodd" stroke-width="0.6667"></path></g></svg>